<svg id="visual" viewBox="0 0 960 540" width="960" height="540" xmlns="http://www.w3.org/2000/svg"
    xmlns:xlink="http://www.w3.org/1999/xlink" version="1.1">
    <rect x="0" y="0" width="960" height="540" fill="#8bb5e3"></rect>
    <defs>
        <linearGradient id="grad1_0" x1="43.8%" y1="100%" x2="100%" y2="0%">
            <stop offset="14.444444444444446%" stop-color="#650dc4" stop-opacity="1"></stop>
            <stop offset="85.55555555555554%" stop-color="#650dc4" stop-opacity="1"></stop>
        </linearGradient>
    </defs>
    <defs>
        <linearGradient id="grad1_1" x1="43.8%" y1="100%" x2="100%" y2="0%">
            <stop offset="14.444444444444446%" stop-color="#650dc4" stop-opacity="1"></stop>
            <stop offset="85.55555555555554%" stop-color="#4877e5" stop-opacity="1"></stop>
        </linearGradient>
    </defs>
    <defs>
        <linearGradient id="grad1_2" x1="43.8%" y1="100%" x2="100%" y2="0%">
            <stop offset="14.444444444444446%" stop-color="#8bb5e3" stop-opacity="1"></stop>
            <stop offset="85.55555555555554%" stop-color="#4877e5" stop-opacity="1"></stop>
        </linearGradient>
    </defs>
    <defs>
        <linearGradient id="grad2_0" x1="0%" y1="100%" x2="56.3%" y2="0%">
            <stop offset="14.444444444444446%" stop-color="#650dc4" stop-opacity="1"></stop>
            <stop offset="85.55555555555554%" stop-color="#650dc4" stop-opacity="1"></stop>
        </linearGradient>
    </defs>
    <defs>
        <linearGradient id="grad2_1" x1="0%" y1="100%" x2="56.3%" y2="0%">
            <stop offset="14.444444444444446%" stop-color="#4877e5" stop-opacity="1"></stop>
            <stop offset="85.55555555555554%" stop-color="#650dc4" stop-opacity="1"></stop>
        </linearGradient>
    </defs>
    <defs>
        <linearGradient id="grad2_2" x1="0%" y1="100%" x2="56.3%" y2="0%">
            <stop offset="14.444444444444446%" stop-color="#4877e5" stop-opacity="1"></stop>
            <stop offset="85.55555555555554%" stop-color="#8bb5e3" stop-opacity="1"></stop>
        </linearGradient>
    </defs>
    <g transform="translate(960, 540)">
        <path
            d="M-270 0C-269 -29.8 -268.1 -59.6 -253 -82.2C-237.9 -104.8 -208.6 -120.3 -187.7 -136.4C-166.8 -152.5 -154.2 -169.2 -139.3 -191.7C-124.4 -214.3 -107.1 -242.8 -83.4 -256.8C-59.8 -270.8 -29.9 -270.4 0 -270L0 0Z"
            fill="#6098e7"></path>
        <path
            d="M-180 0C-179.4 -19.9 -178.7 -39.7 -168.7 -54.8C-158.6 -69.9 -139.1 -80.2 -125.1 -90.9C-111.2 -101.6 -102.8 -112.8 -92.9 -127.8C-82.9 -142.9 -71.4 -161.8 -55.6 -171.2C-39.9 -180.5 -19.9 -180.3 0 -180L0 0Z"
            fill="#4e51da"></path>
        <path
            d="M-90 0C-89.7 -9.9 -89.4 -19.9 -84.3 -27.4C-79.3 -34.9 -69.5 -40.1 -62.6 -45.5C-55.6 -50.8 -51.4 -56.4 -46.4 -63.9C-41.5 -71.4 -35.7 -80.9 -27.8 -85.6C-19.9 -90.3 -10 -90.1 0 -90L0 0Z"
            fill="#650dc4"></path>
    </g>
    <g transform="translate(0, 0)">
        <path
            d="M270 0C270.6 30.1 271.2 60.2 256.8 83.4C242.4 106.7 213 123 190.9 138.7C168.9 154.4 154.1 169.5 138.1 190.1C122.1 210.7 104.8 236.8 81.6 251.1C58.3 265.3 29.2 267.7 0 270L0 0Z"
            fill="#6098e7"></path>
        <path
            d="M180 0C180.4 20.1 180.8 40.1 171.2 55.6C161.6 71.1 142 82 127.3 92.5C112.6 103 102.8 113 92.1 126.7C81.4 140.5 69.9 157.9 54.4 167.4C38.9 176.9 19.4 178.4 0 180L0 0Z"
            fill="#4e51da"></path>
        <path
            d="M90 0C90.2 10 90.4 20.1 85.6 27.8C80.8 35.6 71 41 63.6 46.2C56.3 51.5 51.4 56.5 46 63.4C40.7 70.2 34.9 78.9 27.2 83.7C19.4 88.4 9.7 89.2 0 90L0 0Z"
            fill="#650dc4"></path>
    </g>
</svg>