<svg id="visual" viewBox="0 0 960 540" width="960" height="540" xmlns="http://www.w3.org/2000/svg"
    xmlns:xlink="http://www.w3.org/1999/xlink" version="1.1">
    <rect x="0" y="0" width="960" height="540" fill="#120b18"></rect>
    <path
        d="M0 354L20 348.3C40 342.7 80 331.3 120 341.8C160 352.3 200 384.7 240 398.8C280 413 320 409 360 401.7C400 394.3 440 383.7 480 378.7C520 373.7 560 374.3 600 378C640 381.7 680 388.3 720 388.2C760 388 800 381 840 381.7C880 382.3 920 390.7 940 394.8L960 399L960 541L940 541C920 541 880 541 840 541C800 541 760 541 720 541C680 541 640 541 600 541C560 541 520 541 480 541C440 541 400 541 360 541C320 541 280 541 240 541C200 541 160 541 120 541C80 541 40 541 20 541L0 541Z"
        fill="#085bb4"></path>
    <path
        d="M0 410L20 415C40 420 80 430 120 437.3C160 444.7 200 449.3 240 444.5C280 439.7 320 425.3 360 425C400 424.7 440 438.3 480 445.8C520 453.3 560 454.7 600 451.8C640 449 680 442 720 431.7C760 421.3 800 407.7 840 407.2C880 406.7 920 419.3 940 425.7L960 432L960 541L940 541C920 541 880 541 840 541C800 541 760 541 720 541C680 541 640 541 600 541C560 541 520 541 480 541C440 541 400 541 360 541C320 541 280 541 240 541C200 541 160 541 120 541C80 541 40 541 20 541L0 541Z"
        fill="#3781d9"></path>
    <path
        d="M0 489L20 485.7C40 482.3 80 475.7 120 472C160 468.3 200 467.7 240 468.5C280 469.3 320 471.7 360 470.2C400 468.7 440 463.3 480 468.2C520 473 560 488 600 491C640 494 680 485 720 484.7C760 484.3 800 492.7 840 491.3C880 490 920 479 940 473.5L960 468L960 541L940 541C920 541 880 541 840 541C800 541 760 541 720 541C680 541 640 541 600 541C560 541 520 541 480 541C440 541 400 541 360 541C320 541 280 541 240 541C200 541 160 541 120 541C80 541 40 541 20 541L0 541Z"
        fill="#5ba9fd"></path>
</svg>